<?xml version="1.0" encoding="UTF-8" standalone="no"?>
<!-- Created with Inkscape (http://www.inkscape.org/) -->

<svg
   xmlns:dc="http://purl.org/dc/elements/1.1/"
   xmlns:cc="http://creativecommons.org/ns#"
   xmlns:rdf="http://www.w3.org/1999/02/22-rdf-syntax-ns#"
   xmlns:svg="http://www.w3.org/2000/svg"
   xmlns="http://www.w3.org/2000/svg"
   xmlns:sodipodi="http://sodipodi.sourceforge.net/DTD/sodipodi-0.dtd"
   xmlns:inkscape="http://www.inkscape.org/namespaces/inkscape"
   width="700"
   height="280"
   id="svg6865"
   version="1.1"
   inkscape:version="0.48.2 r9819"
   sodipodi:docname="metric-aggregator.svg">
  <defs
     id="defs6867" />
  <sodipodi:namedview
     id="base"
     pagecolor="#ffffff"
     bordercolor="#666666"
     borderopacity="1.0"
     inkscape:pageopacity="0.0"
     inkscape:pageshadow="2"
     inkscape:zoom="0.94236332"
     inkscape:cx="200.66744"
     inkscape:cy="-5.9212698"
     inkscape:document-units="px"
     inkscape:current-layer="text11422-8-7-5"
     showgrid="false"
     fit-margin-top="0"
     fit-margin-left="0"
     fit-margin-right="0"
     fit-margin-bottom="0"
     inkscape:window-width="1440"
     inkscape:window-height="852"
     inkscape:window-x="0"
     inkscape:window-y="0"
     inkscape:window-maximized="1" />
  <metadata
     id="metadata6870">
    <rdf:RDF>
      <cc:Work
         rdf:about="">
        <dc:format>image/svg+xml</dc:format>
        <dc:type
           rdf:resource="http://purl.org/dc/dcmitype/StillImage" />
        <dc:title />
      </cc:Work>
    </rdf:RDF>
  </metadata>
  <g
     inkscape:label="Layer 1"
     inkscape:groupmode="layer"
     id="layer1"
     transform="translate(-8.8870332,-576.58792)">
    <path
       style="fill:#000000"
       d="m 352.85508,664.80378 c 1.403,0.46415 1.80294,2.033 2.54324,3.14283 0.9713,-0.13949 0.15848,-1.62387 0.52898,-2.3109 0.26691,-2.66172 0.6279,-5.32393 0.58506,-8.00377 0.30879,-3.57749 0.23025,-7.16965 0.20021,-10.75519 0.0174,-1.51243 0.10127,-3.02916 0.3658,-4.52044 -0.50318,-0.7668 1.22223,-1.31597 0.69015,-0.26 -0.64984,3.86558 -0.30747,7.79444 -0.34278,11.69221 -0.002,2.28934 -0.2705,4.56618 -0.31261,6.85487 -0.0462,1.96465 -0.49408,3.88945 -0.51299,5.85476 0.0501,0.77607 -0.37008,2.05166 -0.32907,2.46585 1.16782,-0.65872 2.35767,-1.30629 3.37484,-2.19023 1.19485,-0.35609 0.42195,0.91514 -0.27116,0.9753 -0.98493,0.61251 -2.00325,1.18789 -2.88044,1.95429 -1.54001,0.48834 -1.34478,-1.81632 -2.27081,-2.49143 -0.55961,-0.72668 -1.32506,-1.42908 -1.36842,-2.40815 z"
       id="path4091-3"
       inkscape:connector-curvature="0" />
    <g
       style="font-size:21.44099808px;font-style:normal;font-variant:normal;font-weight:500;font-stretch:normal;text-align:start;line-height:125%;letter-spacing:0px;word-spacing:0px;writing-mode:lr-tb;text-anchor:start;fill:#000000;fill-opacity:1;stroke:none;font-family:Inconsolata;-inkscape-font-specification:Inconsolata Medium"
       id="text3307-1">
      <path
         d="m 311.68635,775.92688 1.41511,0 0,-6.51806 c 0,-0.47171 0.0429,-0.90053 0.32161,-1.41511 0.34306,-0.64323 0.77188,-0.90052 1.17926,-0.90052 0.34305,0 0.72899,0.21441 0.90052,0.75043 0.12865,0.40738 0.10721,0.87908 0.10721,1.28646 l 0,6.7968 1.43654,0 0,-6.47518 c 0,-0.51458 0.0429,-0.92197 0.40738,-1.54375 0.17153,-0.2573 0.53603,-0.87908 1.13637,-0.87908 0.32162,0 0.62179,0.19297 0.77188,0.55746 0.19297,0.40738 0.15009,0.96485 0.15009,1.41511 l 0,6.94688 1.45798,0 0,-6.96832 c 0,-0.81476 0.0215,-1.62952 -0.40737,-2.29419 -0.3645,-0.55747 -0.98629,-0.77188 -1.52231,-0.77188 -0.94341,0 -1.82249,0.55747 -2.20843,1.41511 -0.15008,-0.81476 -0.8362,-1.41511 -1.71528,-1.41511 -0.81475,0 -1.56519,0.51459 -2.01545,1.2007 l 0.0214,-0.96485 -1.43655,0 0,9.7771"
         style=""
         id="path3013" />
      <path
         d="m 323.88628,766.12834 0,1.26502 2.35851,0 0,7.31138 -2.48716,0 0,1.22214 6.34654,0 0,-1.22214 -2.29419,0 0,-8.5764 -3.9237,0 m 3.17327,-4.24531 c -0.62179,0 -1.11493,0.49314 -1.11493,1.09349 0,0.60034 0.49314,1.09349 1.11493,1.09349 0.62179,0 1.11493,-0.49315 1.11493,-1.09349 0,-0.60035 -0.49314,-1.09349 -1.11493,-1.09349"
         style=""
         id="path3015" />
      <path
         d="m 333.79202,775.92688 1.56519,0 0,-5.63898 c 0,-0.64323 0.0858,-1.13638 0.49315,-1.6724 0.36449,-0.49314 1.3079,-1.37222 2.33707,-1.37222 0.49314,0 0.98628,0.21441 1.32934,0.62178 0.53602,0.64323 0.53602,1.47943 0.53602,2.16555 l 0,5.89627 1.52231,0 0,-5.93916 0,0 c 0,-0.75043 0,-1.56519 -0.34305,-2.35851 -0.49314,-1.09349 -1.50087,-1.71528 -2.6158,-1.71528 -1.32934,0 -2.53004,0.85764 -3.25904,1.95113 l 0,-1.71528 -1.56519,0 0,9.7771"
         style=""
         id="path3017" />
      <path
         d="m 349.42251,768.10092 c 0,-0.66467 -0.55747,-1.22214 -1.26502,-1.22214 -0.70755,0 -1.26502,0.55747 -1.26502,1.22214 0,0.68611 0.55747,1.22213 1.26502,1.22213 0.70755,0 1.26502,-0.53602 1.26502,-1.22213 m 0,6.83967 c 0,-0.66467 -0.55747,-1.22213 -1.26502,-1.22213 -0.70755,0 -1.26502,0.55746 -1.26502,1.22213 0,0.68612 0.55747,1.24358 1.26502,1.24358 0.70755,0 1.26502,-0.55746 1.26502,-1.24358"
         style=""
         id="path3019" />
      <path
         d="m 370.90639,762.56914 -1.02917,0 -3.49488,1.82248 0.34305,0.8362 2.68013,-0.79332 0,11.51382 1.50087,0 0,-13.37918"
         style=""
         id="path3021" />
      <path
         d="m 380.59772,762.48337 c -2.12265,0 -4.30964,2.61581 -4.30964,6.88256 0,4.33108 2.20843,6.81824 4.33109,6.81824 1.92968,0 4.22387,-2.10122 4.22387,-6.71103 0,-4.54549 -2.18698,-6.98977 -4.24532,-6.98977 m 2.07978,3.06607 -4.69558,6.08924 c -0.19297,-0.75043 -0.30017,-1.58663 -0.30017,-2.53004 0,-3.43055 1.56519,-5.31737 2.89453,-5.31737 0.729,0 1.52231,0.57891 2.10122,1.75817 m 0.49314,1.4151 c 0.19297,0.75044 0.27874,1.65096 0.27874,2.70157 0,3.73073 -1.60808,5.14584 -2.78733,5.14584 -0.79332,0 -1.60808,-0.64323 -2.18698,-1.82249 l 4.69557,-6.02492"
         style=""
         id="path3023" />
      <path
         d="m 311.68635,802.72813 1.41511,0 0,-6.51807 c 0,-0.4717 0.0429,-0.90052 0.32161,-1.4151 0.34306,-0.64323 0.77188,-0.90052 1.17926,-0.90052 0.34305,0 0.72899,0.21441 0.90052,0.75043 0.12865,0.40738 0.10721,0.87908 0.10721,1.28646 l 0,6.7968 1.43654,0 0,-6.47518 c 0,-0.51459 0.0429,-0.92197 0.40738,-1.54376 0.17153,-0.25729 0.53603,-0.87908 1.13637,-0.87908 0.32162,0 0.62179,0.19297 0.77188,0.55747 0.19297,0.40738 0.15009,0.96484 0.15009,1.41511 l 0,6.94688 1.45798,0 0,-6.96833 c 0,-0.81475 0.0215,-1.62951 -0.40737,-2.29418 -0.3645,-0.55747 -0.98629,-0.77188 -1.52231,-0.77188 -0.94341,0 -1.82249,0.55747 -2.20843,1.41511 -0.15008,-0.81476 -0.8362,-1.41511 -1.71528,-1.41511 -0.81475,0 -1.56519,0.51459 -2.01545,1.2007 l 0.0214,-0.96485 -1.43655,0 0,9.7771"
         style=""
         id="path3025" />
      <path
         d="m 323.54322,794.08741 0.75044,0.98628 c 0.81476,-0.8362 1.90825,-1.09349 2.83021,-1.09349 1.15781,0 1.73672,0.49314 2.01546,0.9434 0.32161,0.53603 0.30017,1.17926 0.30017,1.69384 l 0,0.34306 -0.30017,0 c -1.45799,0 -3.00175,0 -4.24532,0.45026 -1.54375,0.55747 -2.22987,1.71528 -2.22987,2.78733 0,1.43655 1.24358,2.78733 3.28048,2.78733 1.20069,0 2.44427,-0.45026 3.51632,-1.32934 l 0,1.07205 1.45799,0 0,-6.0678 c 0,-0.79332 -0.0214,-1.54376 -0.4717,-2.31563 -0.64323,-1.05061 -1.88681,-1.60808 -3.40912,-1.60808 -1.3079,0 -2.57292,0.40738 -3.49489,1.35079 m 5.9606,4.05234 0,0.66467 c 0,0.49315 0,1.13638 -0.66467,1.84393 -0.3645,0.3645 -1.28646,1.15781 -2.57292,1.15781 -1.3079,0 -2.05833,-0.8362 -2.05833,-1.69383 0,-0.729 0.49314,-1.52232 1.71528,-1.82249 0.90052,-0.21441 2.20842,-0.15009 3.23759,-0.15009 l 0.34305,0"
         style=""
         id="path3027" />
      <path
         d="m 340.09568,792.92959 -2.44428,3.62353 -2.57292,-3.62353 -1.6724,0 3.36624,4.82423 -3.43056,4.97431 1.73672,0 2.55148,-3.79506 2.70157,3.79506 1.75816,0 -3.60209,-5.0172 3.17327,-4.78134 -1.56519,0"
         style=""
         id="path3029" />
      <path
         d="m 349.42251,794.90216 c 0,-0.66467 -0.55747,-1.22213 -1.26502,-1.22213 -0.70755,0 -1.26502,0.55746 -1.26502,1.22213 0,0.68611 0.55747,1.22214 1.26502,1.22214 0.70755,0 1.26502,-0.53603 1.26502,-1.22214 m 0,6.83968 c 0,-0.66467 -0.55747,-1.22214 -1.26502,-1.22214 -0.70755,0 -1.26502,0.55747 -1.26502,1.22214 0,0.68611 0.55747,1.24358 1.26502,1.24358 0.70755,0 1.26502,-0.55747 1.26502,-1.24358"
         style=""
         id="path3031" />
      <path
         d="m 366.16793,789.37039 0,1.43654 5.72474,0 c -0.68611,1.58663 -1.32934,3.17327 -1.95113,4.78135 -0.90052,2.3585 -1.75816,4.73846 -2.55148,7.13985 l 1.69384,0 c 0.64323,-2.10122 1.35079,-4.181 2.12266,-6.23933 0.77188,-2.12266 1.62952,-4.20244 2.53004,-6.28222 l 0,-0.83619 -7.56867,0"
         style=""
         id="path3033" />
      <path
         d="m 381.92707,789.37039 -5.68187,8.55495 0,1.11494 5.38169,0 0,3.68785 1.54375,0 0,-3.66641 1.73673,0 0,-1.32935 -1.73673,0 0,-8.36198 -1.24357,0 m -0.27874,2.37995 0,5.98203 -3.9237,0 3.9237,-5.98203"
         style=""
         id="path3035" />
      <path
         d="m 312.82273,820.88865 0.75043,0.98629 c 0.81476,-0.8362 1.90825,-1.09349 2.83021,-1.09349 1.15782,0 1.73672,0.49314 2.01546,0.9434 0.32161,0.53603 0.30017,1.17926 0.30017,1.69384 l 0,0.34306 -0.30017,0 c -1.45799,0 -3.00174,0 -4.24532,0.45026 -1.54375,0.55746 -2.22987,1.71528 -2.22987,2.78733 0,1.43654 1.24358,2.78733 3.28048,2.78733 1.20069,0 2.44427,-0.45026 3.51632,-1.32934 l 0,1.07205 1.45799,0 0,-6.06781 c 0,-0.79331 -0.0214,-1.54375 -0.4717,-2.31563 -0.64323,-1.0506 -1.88681,-1.60807 -3.40912,-1.60807 -1.3079,0 -2.57292,0.40738 -3.49488,1.35078 m 5.96059,4.05235 0,0.66467 c 0,0.49314 0,1.13638 -0.66467,1.84393 -0.36449,0.36449 -1.28646,1.15781 -2.57292,1.15781 -1.3079,0 -2.05833,-0.8362 -2.05833,-1.69384 0,-0.72899 0.49314,-1.52231 1.71528,-1.82248 0.90052,-0.21441 2.20842,-0.15009 3.23759,-0.15009 l 0.34305,0"
         style=""
         id="path3037" />
      <path
         d="m 322.44973,819.73084 3.88082,9.8843 1.22214,0 2.37995,-5.5961 c 0.57891,-1.37222 1.13638,-2.78733 1.45799,-4.2882 l -1.39366,0 c -0.2573,1.43654 -0.77188,2.78733 -1.32935,4.07379 l -1.56519,3.64497 -2.83021,-7.1613 c -0.0214,-0.0429 -0.0429,-0.0858 -0.0429,-0.12864 0,-0.12865 0.1072,-0.25729 0.0643,-0.42882 l -1.84393,0"
         style=""
         id="path3039" />
      <path
         d="m 335.01416,822.7969 c 0,-1.17925 0.98629,-2.1441 2.16554,-2.1441 1.20069,0 2.16554,0.96485 2.16554,2.1441 0,1.17926 -0.96485,2.1441 -2.16554,2.1441 -1.2007,0 -2.16554,-0.96484 -2.16554,-2.1441 m 2.2513,-3.36624 c -1.95113,0 -3.64497,1.54376 -3.64497,3.45201 0,1.07204 0.53603,2.07977 1.43655,2.65868 -0.70755,0.60035 -1.11493,1.26502 -1.11493,1.88681 0,0.40738 0.17153,0.98628 0.79332,1.3079 -1.05061,0.66467 -1.58664,1.39366 -1.58664,2.16554 0,1.07205 0.98629,2.33707 4.41685,2.33707 3.32335,0 4.52405,-1.69384 4.52405,-3.00174 0,-0.85764 -0.49315,-1.71528 -1.52231,-2.12266 -1.02917,-0.42882 -2.20843,-0.27873 -3.32336,-0.27873 -0.72899,0 -1.20069,-0.0643 -1.39366,-0.12865 -0.38594,-0.1072 -0.60035,-0.34306 -0.60035,-0.64323 0,-0.51458 0.60035,-1.00773 0.70755,-1.09349 0.38594,0.15009 0.81476,0.21441 1.24358,0.21441 1.92969,0 3.51632,-1.54375 3.51632,-3.3448 0,-0.60034 -0.17152,-1.17925 -0.49314,-1.67239 0.51458,-0.30018 1.11493,-0.47171 1.71528,-0.47171 0.19297,0 0.3645,0.0214 0.55747,0.0643 l -0.17153,-1.26502 c -0.98629,-0.0858 -1.97257,0.23585 -2.72301,0.85764 -0.62179,-0.60035 -1.43655,-0.92197 -2.33707,-0.92197 m -1.47943,9.58413 c 0.3645,0.0429 0.87909,0.0858 1.62952,0.12865 0.72899,0.0214 1.52231,-0.0429 2.07978,0.0429 0.90052,0.15009 1.17925,0.70755 1.17925,1.13637 0,0.42882 -0.25729,0.94341 -0.92196,1.3079 -0.72899,0.38594 -1.54375,0.42882 -2.20842,0.42882 -0.45026,0 -1.28646,-0.0214 -2.01546,-0.32161 -0.79331,-0.32162 -0.96484,-0.85764 -0.96484,-1.2007 0,-0.70755 0.66467,-1.22214 1.22213,-1.52231"
         style=""
         id="path3041" />
      <path
         d="m 349.42251,821.70341 c 0,-0.66467 -0.55747,-1.22214 -1.26502,-1.22214 -0.70755,0 -1.26502,0.55747 -1.26502,1.22214 0,0.68611 0.55747,1.22214 1.26502,1.22214 0.70755,0 1.26502,-0.53603 1.26502,-1.22214 m 0,6.83968 c 0,-0.66467 -0.55747,-1.22214 -1.26502,-1.22214 -0.70755,0 -1.26502,0.55747 -1.26502,1.22214 0,0.68611 0.55747,1.24358 1.26502,1.24358 0.70755,0 1.26502,-0.55747 1.26502,-1.24358"
         style=""
         id="path3043" />
      <path
         d="m 371.20656,816.17163 -5.68186,8.55496 0,1.11493 5.38169,0 0,3.68786 1.54375,0 0,-3.66642 1.73672,0 0,-1.32934 -1.73672,0 0,-8.36199 -1.24358,0 m -0.27873,2.37995 0,5.98204 -3.9237,0 3.9237,-5.98204"
         style=""
         id="path3045" />
      <path
         d="m 376.86699,818.25141 1.09349,0.87908 c 0.12865,-0.19297 0.0643,-0.32161 0.19297,-0.49314 0.32162,-0.49314 1.11493,-1.22214 2.27275,-1.22214 1.43654,0 2.57292,1.09349 2.57292,2.53004 0,1.62951 -1.37223,2.80877 -2.33707,3.68785 -1.52231,1.37222 -2.76589,2.74445 -3.88082,4.95287 l 0,0.94341 7.8474,0 0,-1.47943 c -0.15008,-0.0643 -0.25729,0.0429 -0.30017,0.0858 -0.0858,0.0858 -0.12865,0.0858 -0.21441,0.0858 l -5.61754,0 c 1.11493,-1.92968 2.68012,-3.25903 3.64497,-4.15955 0.96484,-0.92196 2.33707,-2.29419 2.33707,-4.22388 0,-2.07977 -1.69385,-3.75217 -3.85938,-3.75217 -1.52231,0 -2.95886,0.81476 -3.75218,2.16554"
         style=""
         id="path3047" />
      <path
         d="m 317.26101,855.34434 c 0,-0.66467 -0.55746,-1.22214 -1.26502,-1.22214 -0.70755,0 -1.26502,0.55747 -1.26502,1.22214 0,0.68611 0.55747,1.24357 1.26502,1.24357 0.70756,0 1.26502,-0.55746 1.26502,-1.24357"
         style=""
         id="path3049" />
      <path
         d="m 327.98151,855.34434 c 0,-0.66467 -0.55747,-1.22214 -1.26502,-1.22214 -0.70755,0 -1.26502,0.55747 -1.26502,1.22214 0,0.68611 0.55747,1.24357 1.26502,1.24357 0.70755,0 1.26502,-0.55746 1.26502,-1.24357"
         style=""
         id="path3051" />
      <path
         d="m 338.70201,855.34434 c 0,-0.66467 -0.55747,-1.22214 -1.26502,-1.22214 -0.70755,0 -1.26502,0.55747 -1.26502,1.22214 0,0.68611 0.55747,1.24357 1.26502,1.24357 0.70755,0 1.26502,-0.55746 1.26502,-1.24357"
         style=""
         id="path3053" />
    </g>
    <g
       transform="matrix(0.67003121,0,0,0.67003121,189.09971,225.01722)"
       id="g6710">
      <g
         style="font-size:32px;font-style:normal;font-variant:normal;font-weight:500;font-stretch:normal;text-align:center;line-height:125%;letter-spacing:0px;word-spacing:0px;writing-mode:lr-tb;text-anchor:middle;fill:#000000;fill-opacity:1;stroke:none;font-family:Inconsolata;-inkscape-font-specification:Inconsolata Medium"
         id="text2985-9">
        <path
           d="m 221.49801,709.35016 c -1.344,-1.472 -3.296,-2.272 -5.472,-2.272 -3.392,0 -5.6,1.888 -5.6,4.064 0,2.55999 2.752,3.488 3.552,3.776 1.248,0.448 2.848,0.832 3.936,1.344 1.216,0.576 1.44,1.344 1.44,1.856 0,1.37599 -1.664,2.304 -3.744,2.304 -2.496,0 -4.096,-1.504 -4.576,-2.016 -0.096,-0.128 -0.096,-0.224 -0.096,-0.352 0,-0.032 0.032,-0.224 -0.128,-0.288 l -1.344,2.272 c 1.728,1.59999 3.968,2.336 6.176,2.336 4,0 6.08,-2.36801 6.08,-4.576 0,-0.992 -0.416,-2.33601 -2.144,-3.296 -1.632,-0.928 -4,-1.248 -5.376,-1.92 -1.184,-0.576 -1.44,-1.28 -1.44,-1.792 0,-1.152 1.44,-1.984 3.072,-1.984 2.112,0 3.52,1.28 4.064,2.016 0.096,0.096 0.064,0.192 0.064,0.288 0,0.192 0.128,0.256 0.192,0.256 l 1.344,-2.016"
           style="line-height:125%;font-family:Inconsolata;-inkscape-font-specification:Inconsolata Medium"
           id="path3056" />
        <path
           d="m 229.69001,703.49416 -0.288,3.936 -3.488,0 -0.032,1.888 3.424,0 c -0.192,2.49599 -0.288,4.992 -0.288,7.456 0,1.31199 0,2.784 0.864,4 0.704,0.95999 1.824,1.536 3.328,1.536 1.728,0 3.424,-0.73601 4.672,-1.632 l -0.704,-1.824 c -1.248,0.92799 -2.4,1.344 -3.296,1.344 -1.088,0 -2.208,-0.60801 -2.464,-2.368 0,-0.128 -0.096,-0.67201 -0.096,-2.816 0,-1.888 0.096,-3.80801 0.288,-5.696 l 4.8,0 0,-1.92 -4.768,0 c 0,0 0.224,-2.62401 0.384,-3.456 0.032,-0.32 0.288,-0.512 0.16,-0.864 l -2.496,0.416"
           style="line-height:125%;font-family:Inconsolata;-inkscape-font-specification:Inconsolata Medium"
           id="path3058" />
        <path
           d="m 242.55401,709.12616 1.12,1.472 c 1.216,-1.248 2.848,-1.632 4.224,-1.632 1.728,0 2.592,0.736 3.008,1.408 0.48,0.79999 0.448,1.76 0.448,2.528 l 0,0.512 -0.448,0 c -2.176,0 -4.48,0 -6.336,0.672 -2.304,0.83199 -3.328,2.56 -3.328,4.16 0,2.14399 1.856,4.16 4.896,4.16 1.792,0 3.648,-0.67201 5.248,-1.984 l 0,1.6 2.176,0 0,-9.056 c 0,-1.184 -0.032,-2.30401 -0.704,-3.456 -0.96,-1.568 -2.816,-2.4 -5.088,-2.4 -1.952,0 -3.84,0.608 -5.216,2.016 m 8.896,6.048 0,0.992 c 0,0.736 0,1.696 -0.992,2.752 -0.544,0.544 -1.92,1.728 -3.84,1.728 -1.952,0 -3.072,-1.24801 -3.072,-2.528 0,-1.088 0.736,-2.272 2.56,-2.72 1.344,-0.32 3.296,-0.224 4.832,-0.224 l 0.512,0"
           style="line-height:125%;font-family:Inconsolata;-inkscape-font-specification:Inconsolata Medium"
           id="path3060" />
        <path
           d="m 261.69001,703.49416 -0.288,3.936 -3.488,0 -0.032,1.888 3.424,0 c -0.192,2.49599 -0.288,4.992 -0.288,7.456 0,1.31199 0,2.784 0.864,4 0.704,0.95999 1.824,1.536 3.328,1.536 1.728,0 3.424,-0.73601 4.672,-1.632 l -0.704,-1.824 c -1.248,0.92799 -2.4,1.344 -3.296,1.344 -1.088,0 -2.208,-0.60801 -2.464,-2.368 0,-0.128 -0.096,-0.67201 -0.096,-2.816 0,-1.888 0.096,-3.80801 0.288,-5.696 l 4.8,0 0,-1.92 -4.768,0 c 0,0 0.224,-2.62401 0.384,-3.456 0.032,-0.32 0.288,-0.512 0.16,-0.864 l -2.496,0.416"
           style="line-height:125%;font-family:Inconsolata;-inkscape-font-specification:Inconsolata Medium"
           id="path3062" />
        <path
           d="m 285.49801,709.35016 c -1.344,-1.472 -3.296,-2.272 -5.472,-2.272 -3.392,0 -5.6,1.888 -5.6,4.064 0,2.55999 2.752,3.488 3.552,3.776 1.248,0.448 2.848,0.832 3.936,1.344 1.216,0.576 1.44,1.344 1.44,1.856 0,1.37599 -1.664,2.304 -3.744,2.304 -2.496,0 -4.096,-1.504 -4.576,-2.016 -0.096,-0.128 -0.096,-0.224 -0.096,-0.352 0,-0.032 0.032,-0.224 -0.128,-0.288 l -1.344,2.272 c 1.728,1.59999 3.968,2.336 6.176,2.336 4,0 6.08,-2.36801 6.08,-4.576 0,-0.992 -0.416,-2.33601 -2.144,-3.296 -1.632,-0.928 -4,-1.248 -5.376,-1.92 -1.184,-0.576 -1.44,-1.28 -1.44,-1.792 0,-1.152 1.44,-1.984 3.072,-1.984 2.112,0 3.52,1.28 4.064,2.016 0.096,0.096 0.064,0.192 0.064,0.288 0,0.192 0.128,0.256 0.192,0.256 l 1.344,-2.016"
           style="line-height:125%;font-family:Inconsolata;-inkscape-font-specification:Inconsolata Medium"
           id="path3064" />
        <path
           d="m 204.18601,740.71016 c -4.92799,2.17599 -8.096,7.2 -8.096,13.056 0,5.82399 3.07201,11.136 8.128,13.792 l 1.056,-1.696 c -4.38399,-2.528 -6.944,-7.23201 -6.944,-12.192 0,-4.576 2.208,-8.67201 5.952,-10.848 0.064,-0.064 0.16,-0.128 0.288,-0.128 0.096,0 0.192,0.064 0.32,0.064 0.064,0 0.16,-0.032 0.288,-0.064 l -0.992,-1.984"
           style="line-height:125%;font-family:Inconsolata;-inkscape-font-specification:Inconsolata Medium"
           id="path3066" />
        <path
           d="m 209.56201,747.43016 0.032,19.936 2.336,0 0,-7.264 c 0.992,1.43999 2.624,2.336 4.384,2.336 3.008,0 6.144,-2.52801 6.144,-7.872 0,-5.152 -3.04,-7.456 -5.92,-7.456 -1.888,0 -3.648,0.96 -4.64,2.56 l 0,-2.24 -2.336,0 m 6.112,1.632 c 1.28,0 4.384,0.672 4.384,5.984 0,4.60799 -3.008,5.344 -4.384,5.344 -1.376,0 -2.784,-0.70401 -3.36,-2.016 -0.416,-0.992 -0.416,-2.20801 -0.416,-4.32 0,-1.216 0.064,-2.11201 0.384,-2.88 0.576,-1.312 1.92,-2.112 3.392,-2.112"
           style="line-height:125%;font-family:Inconsolata;-inkscape-font-specification:Inconsolata Medium"
           id="path3068" />
        <path
           d="m 226.84201,747.43016 0,14.624 2.304,0 0,-7.104 c 0,-0.896 0.032,-1.85601 1.024,-3.424 1.344,-2.112 3.072,-2.464 4.128,-2.464 1.216,0 1.984,0.576 2.4,1.088 0.192,0.256 0.288,0.512 0.544,0.736 l 1.088,-2.208 c -0.928,-0.96 -2.272,-1.6 -3.904,-1.6 -2.144,0 -4.32,1.088 -5.28,3.168 l 0.096,-2.816 -2.4,0"
           style="line-height:125%;font-family:Inconsolata;-inkscape-font-specification:Inconsolata Medium"
           id="path3070" />
        <path
           d="m 243.06601,747.39816 0,1.888 3.52,0 0,10.912 -3.712,0 0,1.824 9.472,0 0,-1.824 -3.424,0 0,-12.8 -5.856,0 m 4.736,-6.336 c -0.928,0 -1.664,0.736 -1.664,1.632 0,0.89599 0.736,1.632 1.664,1.632 0.928,0 1.664,-0.73601 1.664,-1.632 0,-0.896 -0.736,-1.632 -1.664,-1.632"
           style="line-height:125%;font-family:Inconsolata;-inkscape-font-specification:Inconsolata Medium"
           id="path3072" />
        <path
           d="m 270.26601,749.83016 c -1.152,-1.696 -3.104,-2.72 -5.472,-2.72 -4.28799,0 -7.328,3.232 -7.328,7.616 0,4.41599 3.04001,7.68 7.2,7.68 2.016,0 4,-0.83201 5.376,-2.336 l -1.312,-1.536 c -0.992,1.11999 -2.432,1.76 -3.872,1.76 -2.848,0 -5.024,-2.36801 -5.024,-5.792 0,-3.328 2.144,-5.408 4.832,-5.408 2.496,0 3.68,1.728 3.776,1.92 0.128,0.224 -0.064,0.544 0.192,0.736 l 1.632,-1.92"
           style="line-height:125%;font-family:Inconsolata;-inkscape-font-specification:Inconsolata Medium"
           id="path3074" />
        <path
           d="m 279.93001,747.07816 c -3.488,0 -6.72,2.496 -6.72,7.808 0,4.89599 3.04001,7.488 7.008,7.488 2.112,0 4,-0.76801 5.248,-2.272 l -1.28,-1.248 c -0.928,1.08799 -2.336,1.664 -3.776,1.664 -1.952,0 -4.8,-1.08801 -4.96,-5.472 l 10.368,0 c 0.096,-0.992 0.064,-1.95201 -0.096,-2.784 -0.672,-3.936 -3.392,-5.184 -5.792,-5.184 m -4.416,6.208 c 0.48,-3.456 2.688,-4.448 4.256,-4.448 2.368,0 4.064,2.08 3.776,4.448 l -8.032,0"
           style="line-height:125%;font-family:Inconsolata;-inkscape-font-specification:Inconsolata Medium"
           id="path3076" />
        <path
           d="m 290.13801,742.72616 c 4.224,2.27199 6.912,6.624 6.912,11.392 0,4.79999 -2.752,9.28 -7.072,11.552 l 0.608,1.952 c 5.312,-2.528 8.736,-7.84001 8.736,-13.6 0,-5.696 -3.36,-10.88001 -8.576,-13.28 l -0.608,1.984"
           style="line-height:125%;font-family:Inconsolata;-inkscape-font-specification:Inconsolata Medium"
           id="path3078" />
      </g>
      <path
         inkscape:connector-curvature="0"
         id="path3969"
         d="m 181.60039,785.0616 c -7.63154,0.37886 -17.53425,-5.58979 -15.55199,-14.28116 2.24163,-17.81669 0.0139,-35.94146 2.46566,-53.78309 1.94868,-14.07642 2.85811,-28.26768 2.15991,-42.47111 -0.32406,-2.56824 0.0419,-14.6196 3.40176,-9.66726 -2.31166,18.62206 -0.0298,37.622 -3.40769,56.17799 -1.45037,14.13638 -2.08691,28.41345 -0.81397,42.58943 -3.58828,8.31164 1.39594,20.68269 11.8092,19.12238 24.65043,0.90767 49.2274,-1.62437 73.78755,-3.3494 17.65857,-0.88843 35.41025,-2.44682 53.07398,-0.95895 6.85719,2.76563 6.84021,-6.92894 7.63143,-11.51668 0.0934,-6.92533 1.13161,-13.80214 1.12515,-20.70057 -0.69193,-22.22329 -6.19501,-44.10337 -5.41301,-66.40272 5.02383,-7.58508 -4.60859,-19.04159 -12.80772,-14.36987 -7.78879,1.80853 -19.48895,-3.4984 -24.62448,4.23937 -2.655,8.11395 -9.81773,15.45704 -18.83283,15.25754 -11.86502,1.98291 -25.06513,0.84768 -34.92291,-6.63816 -2.68122,-6.5002 -3.05681,-19.23241 -13.18995,-17.22828 -9.63392,0.87791 -19.34236,-0.68224 -28.95297,0.62533 10.6245,-5.77714 22.91602,0.10202 34.1094,-3.01269 10.06646,-0.25261 5.03628,12.19793 9.78078,17.07361 6.55498,7.98224 17.84303,7.8758 27.29267,7.79281 6.22364,-0.42309 12.43638,-2.15936 17.71093,-5.55032 3.18054,-5.97478 5.86182,-16.5297 14.63055,-14.86545 8.16659,1.81438 16.68458,-0.78857 24.99211,0.21326 8.4385,-0.34162 9.21222,9.84452 7.53912,16.0299 -1.16198,18.63701 3.34941,37.06384 4.71428,55.59899 1.02947,10.02406 0.51332,20.19192 -0.57125,30.12122 1.42581,6.91675 -2.25126,16.93453 -10.65039,16.11643 -11.42206,-3.10057 -23.26377,-0.46772 -34.88418,-0.68282 -25.87966,0.77289 -51.65131,3.55229 -77.50905,4.60248 -4.69706,0.0874 -9.39657,0.0709 -14.09209,-0.0822 z"
         style="fill:#000000" />
    </g>
    <path
       style="color:#000000;fill:#1daeff;fill-opacity:1;fill-rule:nonzero;stroke:none;marker:none;visibility:visible;display:inline;overflow:visible;enable-background:accumulate"
       d="m 427.94103,709.0321 c 0.4724,-0.40637 0.68163,-0.80994 0.64223,-1.23868 -0.0322,-0.34977 0.30451,-1.23678 0.7481,-1.97116 0.44357,-0.73437 0.91964,-1.56851 1.05791,-1.85363 0.79778,-1.64501 1.29947,-2.80547 1.28429,-2.97069 -0.0241,-0.26218 0.68563,-0.58502 0.97229,-0.44229 0.43034,0.21424 0.31236,0.84537 -0.38854,2.07855 -0.77783,1.36849 -1.38724,2.86586 -1.35689,3.33393 0.0279,0.43102 -0.39284,1.32975 -1.02702,2.19345 -0.29383,0.40014 -0.46083,0.78859 -0.37111,0.86318 0.0897,0.0746 0.92015,0.10475 1.84547,0.0671 0.92528,-0.0377 3.35037,-0.10812 5.38905,-0.1563 2.03868,-0.0482 6.24164,-0.31547 9.33995,-0.59392 6.11419,-0.54946 6.53296,-0.49948 6.65187,0.79454 0.0624,0.67904 -0.33511,0.77042 -1.20012,0.27586 -0.54086,-0.30922 -1.29317,-0.29039 -5.55252,0.13907 -2.7098,0.2733 -6.81638,0.55194 -9.1257,0.61938 -4.89331,0.14286 -4.83131,0.13938 -6.34853,0.35506 -0.95666,0.13595 -1.10967,0.22138 -0.85454,0.47706 0.17094,0.17127 0.39261,0.3039 0.49264,0.29471 0.10002,-0.009 1.77309,1.29411 3.71793,2.89624 2.8914,2.38193 3.48894,2.98166 3.2777,3.28974 -0.14211,0.20721 -0.34791,0.38499 -0.45736,0.39504 -0.29725,0.0274 -9.21014,-7.53031 -9.33242,-7.91336 -0.058,-0.18152 0.20994,-0.60125 0.59532,-0.93276 z"
       id="path3733"
       inkscape:connector-curvature="0" />
    <g
       style="font-size:26.80124855px;font-style:normal;font-weight:normal;line-height:125%;letter-spacing:0px;word-spacing:0px;fill:#1daeff;fill-opacity:1;stroke:none;font-family:Sans"
       id="text3506-6-1">
      <path
         d="m 481.88742,714.49249 0,-7.46456 c -1e-5,-0.91431 -0.19544,-1.5983 -0.58628,-2.05197 -0.39086,-0.46064 -0.99808,-0.69096 -1.82164,-0.69097 -1.08184,10e-6 -1.88099,0.31059 -2.39746,0.93176 -0.51649,0.62118 -0.77473,1.57737 -0.77472,2.86857 l 0,6.40717 -1.7379,0 0,-7.46456 c 0,-0.91431 -0.19543,-1.5983 -0.58627,-2.05197 -0.39086,-0.46064 -1.00157,-0.69096 -1.83212,-0.69097 -1.08881,10e-6 -1.88796,0.32804 -2.39745,0.9841 -0.50253,0.64911 -0.75379,1.71697 -0.75379,3.20359 l 0,6.01981 -1.73789,0 0,-11.47428 1.41334,0 0.28267,1.57038 0.0838,0 c 0.32803,-0.55834 0.78868,-0.99456 1.38194,-1.30865 0.60023,-0.31407 1.27026,-0.4711 2.01009,-0.47112 1.79372,2e-5 2.96627,0.64911 3.51766,1.94728 l 0.0838,0 c 0.34198,-0.60022 0.83753,-1.07483 1.48663,-1.42381 0.64908,-0.34897 1.38891,-0.52345 2.21948,-0.52347 1.29817,2e-5 2.26832,0.33503 2.91045,1.00505 0.64907,0.66306 0.97362,1.72743 0.97364,3.19312 l 0,7.4855 -1.7379,0"
         style="font-size:21.44099808px;font-variant:normal;font-stretch:normal;fill:#1daeff;font-family:Open Sans;-inkscape-font-specification:Open Sans"
         id="path3081" />
      <path
         d="m 492.04258,714.70188 c -1.69602,0 -3.03608,-0.51648 -4.02019,-1.54945 -0.97713,-1.03296 -1.46569,-2.46725 -1.46569,-4.30286 0,-1.84955 0.45367,-3.31874 1.361,-4.40755 0.91431,-1.08878 2.13921,-1.63318 3.6747,-1.6332 1.43777,2e-5 2.57543,0.47462 3.41298,1.42382 0.83752,0.94224 1.25629,2.18808 1.2563,3.73752 l 0,1.09927 -7.90427,0 c 0.0349,1.34704 0.3734,2.36954 1.01552,3.06748 0.64908,0.69796 1.55991,1.04693 2.73247,1.04693 1.23536,0 2.45677,-0.25824 3.66423,-0.77473 l 0,1.54945 c -0.6142,0.26522 -1.19699,0.45367 -1.74836,0.56534 -0.54441,0.11865 -1.20397,0.17798 -1.97869,0.17798 m -0.47111,-10.43783 c -0.9213,10e-6 -1.65764,0.30013 -2.20901,0.90035 -0.54441,0.60025 -0.86546,1.43081 -0.96317,2.49168 l 5.99887,0 c -1e-5,-1.09577 -0.24429,-1.93331 -0.73285,-2.51262 -0.48857,-0.58626 -1.18652,-0.8794 -2.09384,-0.87941"
         style="font-size:21.44099808px;font-variant:normal;font-stretch:normal;fill:#1daeff;font-family:Open Sans;-inkscape-font-specification:Open Sans"
         id="path3083" />
      <path
         d="m 502.92012,713.26759 c 0.30709,0 0.60372,-0.0209 0.88988,-0.0628 0.28616,-0.0489 0.51299,-0.0977 0.68051,-0.14657 l 0,1.32959 c -0.18846,0.0907 -0.46764,0.16402 -0.83754,0.21985 -0.36294,0.0628 -0.69098,0.0942 -0.98411,0.0942 -2.21948,0 -3.32922,-1.16907 -3.32922,-3.5072 l 0,-6.82594 -1.64367,0 0,-0.83754 1.64367,-0.72238 0.73285,-2.4498 1.00504,0 0,2.65919 3.32922,0 0,1.35053 -3.32922,0 0,6.75266 c 0,0.69097 0.16402,1.22141 0.49206,1.59132 0.32803,0.36992 0.77821,0.55487 1.35053,0.55487"
         style="font-size:21.44099808px;font-variant:normal;font-stretch:normal;fill:#1daeff;font-family:Open Sans;-inkscape-font-specification:Open Sans"
         id="path3085" />
      <path
         d="m 512.02836,702.80882 c 0.50949,2e-5 0.96665,0.0419 1.37147,0.12563 l -0.2408,1.61227 c -0.47461,-0.10469 -0.89338,-0.15703 -1.2563,-0.15704 -0.92828,10e-6 -1.72394,0.3769 -2.38699,1.13068 -0.65608,0.75379 -0.98411,1.69253 -0.98411,2.81622 l 0,6.15591 -1.73789,0 0,-11.47428 1.43428,0 0.19892,2.12525 0.0838,0 c 0.42575,-0.74679 0.93874,-1.3226 1.53898,-1.72742 0.60023,-0.4048 1.25979,-0.6072 1.97869,-0.60722"
         style="font-size:21.44099808px;font-variant:normal;font-stretch:normal;fill:#1daeff;font-family:Open Sans;-inkscape-font-specification:Open Sans"
         id="path3087" />
      <path
         d="m 517.28391,714.49249 -1.73789,0 0,-11.47428 1.73789,0 0,11.47428 m -1.88446,-14.58364 c 0,-0.39782 0.0977,-0.68747 0.29314,-0.86895 0.19542,-0.18843 0.4397,-0.28266 0.73285,-0.28267 0.27917,10e-6 0.51996,0.0942 0.72237,0.28267 0.2024,0.18846 0.30361,0.47811 0.30361,0.86895 0,0.39086 -0.10121,0.684 -0.30361,0.87941 -0.20241,0.18846 -0.4432,0.28268 -0.72237,0.28267 -0.29315,10e-6 -0.53743,-0.0942 -0.73285,-0.28267 -0.19543,-0.19541 -0.29314,-0.48855 -0.29314,-0.87941"
         style="font-size:21.44099808px;font-variant:normal;font-stretch:normal;fill:#1daeff;font-family:Open Sans;-inkscape-font-specification:Open Sans"
         id="path3089" />
      <path
         d="m 525.57555,714.70188 c -1.66112,0 -2.94884,-0.50951 -3.86315,-1.52851 -0.90733,-1.02598 -1.361,-2.47423 -1.361,-4.34473 0,-1.91936 0.46065,-3.4025 1.38194,-4.44943 0.92827,-1.04691 2.24739,-1.57037 3.95737,-1.57039 0.55137,2e-5 1.10275,0.0593 1.65414,0.17798 0.55137,0.11866 0.9841,0.25825 1.29819,0.41877 l -0.53393,1.47616 c -0.38389,-0.15354 -0.80265,-0.27917 -1.25631,-0.37689 -0.45368,-0.10468 -0.855,-0.15703 -1.20397,-0.15704 -2.33115,10e-6 -3.49672,1.48664 -3.49672,4.4599 0,1.40986 0.28267,2.49168 0.84801,3.24546 0.57231,0.75379 1.41683,1.13068 2.53355,1.13068 0.95619,0 1.9368,-0.2059 2.94186,-0.61769 l 0,1.53898 c -0.76775,0.39783 -1.73441,0.59675 -2.89998,0.59675"
         style="font-size:21.44099808px;font-variant:normal;font-stretch:normal;fill:#1daeff;font-family:Open Sans;-inkscape-font-specification:Open Sans"
         id="path3091" />
      <path
         d="m 543.8339,714.49249 -0.34549,-1.6332 -0.0838,0 c -0.57233,0.71889 -1.14465,1.20745 -1.71696,1.46569 -0.56534,0.25127 -1.27376,0.3769 -2.12525,0.3769 -1.13766,0 -2.03104,-0.29314 -2.68013,-0.87942 -0.64211,-0.58627 -0.96317,-1.42032 -0.96317,-2.50215 0,-2.31718 1.85305,-3.53161 5.55917,-3.64329 l 1.94727,-0.0628 0,-0.7119 c 0,-0.90035 -0.19543,-1.5634 -0.58627,-1.98916 -0.38388,-0.43272 -1.00157,-0.64908 -1.85306,-0.64909 -0.95619,10e-6 -2.03801,0.29315 -3.24546,0.87941 l -0.53393,-1.32959 c 0.56533,-0.30709 1.18302,-0.54788 1.85305,-0.72238 0.67701,-0.17447 1.35402,-0.26172 2.03103,-0.26173 1.36798,1e-5 2.38,0.30362 3.03608,0.91083 0.66305,0.60722 0.99457,1.58086 0.99458,2.92091 l 0,7.83099 -1.28771,0 m -3.92597,-1.2249 c 1.08182,0 1.92982,-0.29662 2.54403,-0.88988 0.62116,-0.59326 0.93175,-1.42382 0.93176,-2.49168 l 0,-1.03646 -1.7379,0.0733 c -1.38194,0.0489 -2.38001,0.26522 -2.9942,0.64909 -0.60722,0.3769 -0.91082,0.96666 -0.91082,1.7693 0,0.62816 0.18844,1.10625 0.56534,1.43429 0.38387,0.32804 0.9178,0.49205 1.60179,0.49205"
         style="font-size:21.44099808px;font-variant:normal;font-stretch:normal;fill:#1daeff;font-family:Open Sans;-inkscape-font-specification:Open Sans"
         id="path3093" />
      <path
         d="m 558.10347,703.01821 0,1.09927 -2.12525,0.25126 c 0.19541,0.24429 0.3699,0.56535 0.52346,0.96317 0.15354,0.39086 0.23031,0.83406 0.23032,1.32959 -10e-6,1.12371 -0.38388,2.02057 -1.15161,2.6906 -0.76776,0.67003 -1.82166,1.00505 -3.16171,1.00504 -0.342,1e-5 -0.66306,-0.0279 -0.96317,-0.0838 -0.73983,0.39086 -1.10975,0.88291 -1.10974,1.47616 -10e-6,0.31408 0.12911,0.54789 0.38736,0.70144 0.25824,0.14657 0.70143,0.21986 1.32959,0.21986 l 2.03103,0 c 1.24234,0 2.19504,0.26173 2.85811,0.78519 0.67002,0.52346 1.00503,1.28422 1.00504,2.28229 -10e-6,1.27027 -0.50951,2.23693 -1.52851,2.89998 -1.01901,0.67003 -2.50564,1.00504 -4.45989,1.00505 -1.5006,-10e-6 -2.65919,-0.27919 -3.47579,-0.83754 -0.80962,-0.55836 -1.21443,-1.34705 -1.21443,-2.36605 0,-0.69795 0.22334,-1.30168 0.67003,-1.81118 0.44669,-0.5095 1.07484,-0.85498 1.88446,-1.03645 -0.29314,-0.13261 -0.54091,-0.33851 -0.74331,-0.61769 -0.19543,-0.27917 -0.29314,-0.60372 -0.29314,-0.97364 0,-0.41876 0.11167,-0.78519 0.33502,-1.09927 0.22334,-0.31407 0.5758,-0.61768 1.05739,-0.91082 -0.59326,-0.24428 -1.07834,-0.65956 -1.45523,-1.24584 -0.36991,-0.58627 -0.55487,-1.2563 -0.55487,-2.01009 0,-1.2563 0.3769,-2.22296 1.13068,-2.89998 0.75378,-0.68398 1.82165,-1.02597 3.20359,-1.02599 0.60023,2e-5 1.14114,0.0698 1.62273,0.20939 l 3.96784,0 m -9.15011,13.40062 c 0,0.62117 0.26173,1.09229 0.78519,1.41335 0.52346,0.32105 1.27375,0.48158 2.25089,0.48158 1.4587,0 2.53703,-0.21985 3.23499,-0.65956 0.70492,-0.43273 1.05738,-1.0225 1.05739,-1.7693 -1e-5,-0.62117 -0.19194,-1.0539 -0.5758,-1.29818 -0.38388,-0.23731 -1.10626,-0.35596 -2.16714,-0.35596 l -2.08337,0 c -0.78869,0 -1.40289,0.18845 -1.84259,0.56534 -0.43971,0.37689 -0.65956,0.9178 -0.65956,1.62273 m 0.94223,-9.72592 c 0,0.80265 0.22683,1.40986 0.6805,1.82165 0.45366,0.41179 1.08531,0.61769 1.89493,0.61768 1.69601,10e-6 2.54402,-0.82357 2.54403,-2.47074 -10e-6,-1.72392 -0.85849,-2.58589 -2.57544,-2.5859 -0.8166,10e-6 -1.44475,0.21987 -1.88446,0.65956 -0.43971,0.43972 -0.65956,1.0923 -0.65956,1.95775"
         style="font-size:21.44099808px;font-variant:normal;font-stretch:normal;fill:#1daeff;font-family:Open Sans;-inkscape-font-specification:Open Sans"
         id="path3095" />
      <path
         d="m 569.87089,703.01821 0,1.09927 -2.12526,0.25126 c 0.19542,0.24429 0.36991,0.56535 0.52347,0.96317 0.15354,0.39086 0.23031,0.83406 0.23032,1.32959 -10e-6,1.12371 -0.38388,2.02057 -1.15162,2.6906 -0.76775,0.67003 -1.82165,1.00505 -3.16171,1.00504 -0.342,1e-5 -0.66305,-0.0279 -0.96317,-0.0838 -0.73983,0.39086 -1.10974,0.88291 -1.10974,1.47616 0,0.31408 0.12912,0.54789 0.38737,0.70144 0.25823,0.14657 0.70143,0.21986 1.32959,0.21986 l 2.03103,0 c 1.24234,0 2.19504,0.26173 2.8581,0.78519 0.67002,0.52346 1.00504,1.28422 1.00505,2.28229 -1e-5,1.27027 -0.50951,2.23693 -1.52851,2.89998 -1.01901,0.67003 -2.50564,1.00504 -4.45989,1.00505 -1.5006,-10e-6 -2.65919,-0.27919 -3.47579,-0.83754 -0.80962,-0.55836 -1.21443,-1.34705 -1.21443,-2.36605 0,-0.69795 0.22334,-1.30168 0.67003,-1.81118 0.44669,-0.5095 1.07484,-0.85498 1.88446,-1.03645 -0.29314,-0.13261 -0.54091,-0.33851 -0.74331,-0.61769 -0.19543,-0.27917 -0.29314,-0.60372 -0.29314,-0.97364 0,-0.41876 0.11167,-0.78519 0.33501,-1.09927 0.22334,-0.31407 0.57581,-0.61768 1.0574,-0.91082 -0.59326,-0.24428 -1.07834,-0.65956 -1.45523,-1.24584 -0.36991,-0.58627 -0.55487,-1.2563 -0.55487,-2.01009 0,-1.2563 0.37689,-2.22296 1.13068,-2.89998 0.75378,-0.68398 1.82164,-1.02597 3.20359,-1.02599 0.60023,2e-5 1.14114,0.0698 1.62273,0.20939 l 3.96784,0 m -9.15011,13.40062 c -10e-6,0.62117 0.26172,1.09229 0.78519,1.41335 0.52346,0.32105 1.27375,0.48158 2.25088,0.48158 1.45871,0 2.53704,-0.21985 3.235,-0.65956 0.70492,-0.43273 1.05738,-1.0225 1.05739,-1.7693 -1e-5,-0.62117 -0.19194,-1.0539 -0.57581,-1.29818 -0.38388,-0.23731 -1.10625,-0.35596 -2.16713,-0.35596 l -2.08338,0 c -0.78868,0 -1.40288,0.18845 -1.84258,0.56534 -0.43971,0.37689 -0.65957,0.9178 -0.65956,1.62273 m 0.94223,-9.72592 c -10e-6,0.80265 0.22683,1.40986 0.6805,1.82165 0.45366,0.41179 1.0853,0.61769 1.89493,0.61768 1.69601,10e-6 2.54402,-0.82357 2.54402,-2.47074 0,-1.72392 -0.85848,-2.58589 -2.57543,-2.5859 -0.8166,10e-6 -1.44476,0.21987 -1.88446,0.65956 -0.43971,0.43972 -0.65957,1.0923 -0.65956,1.95775"
         style="font-size:21.44099808px;font-variant:normal;font-stretch:normal;fill:#1daeff;font-family:Open Sans;-inkscape-font-specification:Open Sans"
         id="path3097" />
      <path
         d="m 577.48203,702.80882 c 0.50949,2e-5 0.96665,0.0419 1.37147,0.12563 l -0.24079,1.61227 c -0.47462,-0.10469 -0.89339,-0.15703 -1.25631,-0.15704 -0.92828,10e-6 -1.72394,0.3769 -2.38699,1.13068 -0.65608,0.75379 -0.98411,1.69253 -0.98411,2.81622 l 0,6.15591 -1.73789,0 0,-11.47428 1.43428,0 0.19892,2.12525 0.0838,0 c 0.42575,-0.74679 0.93874,-1.3226 1.53898,-1.72742 0.60023,-0.4048 1.25979,-0.6072 1.97869,-0.60722"
         style="font-size:21.44099808px;font-variant:normal;font-stretch:normal;fill:#1daeff;font-family:Open Sans;-inkscape-font-specification:Open Sans"
         id="path3099" />
      <path
         d="m 585.42818,714.70188 c -1.69602,0 -3.03609,-0.51648 -4.02019,-1.54945 -0.97713,-1.03296 -1.46569,-2.46725 -1.46569,-4.30286 0,-1.84955 0.45366,-3.31874 1.361,-4.40755 0.91431,-1.08878 2.13921,-1.63318 3.6747,-1.6332 1.43777,2e-5 2.57542,0.47462 3.41297,1.42382 0.83753,0.94224 1.2563,2.18808 1.25631,3.73752 l 0,1.09927 -7.90427,0 c 0.0349,1.34704 0.3734,2.36954 1.01551,3.06748 0.64909,0.69796 1.55991,1.04693 2.73247,1.04693 1.23536,0 2.45677,-0.25824 3.66424,-0.77473 l 0,1.54945 c -0.61421,0.26522 -1.197,0.45367 -1.74837,0.56534 -0.54441,0.11865 -1.20397,0.17798 -1.97868,0.17798 m -0.47112,-10.43783 c -0.9213,10e-6 -1.65763,0.30013 -2.20901,0.90035 -0.5444,0.60025 -0.86546,1.43081 -0.96317,2.49168 l 5.99888,0 c -10e-6,-1.09577 -0.2443,-1.93331 -0.73285,-2.51262 -0.48857,-0.58626 -1.18652,-0.8794 -2.09385,-0.87941"
         style="font-size:21.44099808px;font-variant:normal;font-stretch:normal;fill:#1daeff;font-family:Open Sans;-inkscape-font-specification:Open Sans"
         id="path3101" />
      <path
         d="m 601.99051,703.01821 0,1.09927 -2.12525,0.25126 c 0.19541,0.24429 0.3699,0.56535 0.52346,0.96317 0.15354,0.39086 0.23031,0.83406 0.23032,1.32959 -1e-5,1.12371 -0.38388,2.02057 -1.15162,2.6906 -0.76775,0.67003 -1.82165,1.00505 -3.16171,1.00504 -0.342,1e-5 -0.66305,-0.0279 -0.96317,-0.0838 -0.73982,0.39086 -1.10974,0.88291 -1.10973,1.47616 -10e-6,0.31408 0.12911,0.54789 0.38736,0.70144 0.25823,0.14657 0.70143,0.21986 1.32959,0.21986 l 2.03103,0 c 1.24234,0 2.19504,0.26173 2.8581,0.78519 0.67003,0.52346 1.00504,1.28422 1.00505,2.28229 -10e-6,1.27027 -0.50951,2.23693 -1.52851,2.89998 -1.01901,0.67003 -2.50564,1.00504 -4.45989,1.00505 -1.5006,-10e-6 -2.65919,-0.27919 -3.47579,-0.83754 -0.80962,-0.55836 -1.21443,-1.34705 -1.21443,-2.36605 0,-0.69795 0.22334,-1.30168 0.67003,-1.81118 0.44669,-0.5095 1.07484,-0.85498 1.88446,-1.03645 -0.29314,-0.13261 -0.54091,-0.33851 -0.74331,-0.61769 -0.19543,-0.27917 -0.29314,-0.60372 -0.29314,-0.97364 0,-0.41876 0.11167,-0.78519 0.33501,-1.09927 0.22335,-0.31407 0.57581,-0.61768 1.0574,-0.91082 -0.59326,-0.24428 -1.07834,-0.65956 -1.45523,-1.24584 -0.36991,-0.58627 -0.55487,-1.2563 -0.55487,-2.01009 0,-1.2563 0.37689,-2.22296 1.13068,-2.89998 0.75378,-0.68398 1.82164,-1.02597 3.20359,-1.02599 0.60023,2e-5 1.14114,0.0698 1.62273,0.20939 l 3.96784,0 m -9.15011,13.40062 c 0,0.62117 0.26173,1.09229 0.78519,1.41335 0.52346,0.32105 1.27375,0.48158 2.25089,0.48158 1.4587,0 2.53703,-0.21985 3.23499,-0.65956 0.70492,-0.43273 1.05738,-1.0225 1.05739,-1.7693 -10e-6,-0.62117 -0.19194,-1.0539 -0.5758,-1.29818 -0.38389,-0.23731 -1.10626,-0.35596 -2.16714,-0.35596 l -2.08338,0 c -0.78868,0 -1.40288,0.18845 -1.84258,0.56534 -0.43971,0.37689 -0.65956,0.9178 -0.65956,1.62273 m 0.94223,-9.72592 c 0,0.80265 0.22683,1.40986 0.6805,1.82165 0.45366,0.41179 1.08531,0.61769 1.89493,0.61768 1.69601,10e-6 2.54402,-0.82357 2.54403,-2.47074 -1e-5,-1.72392 -0.85849,-2.58589 -2.57544,-2.5859 -0.8166,10e-6 -1.44476,0.21987 -1.88446,0.65956 -0.43971,0.43972 -0.65956,1.0923 -0.65956,1.95775"
         style="font-size:21.44099808px;font-variant:normal;font-stretch:normal;fill:#1daeff;font-family:Open Sans;-inkscape-font-specification:Open Sans"
         id="path3103" />
      <path
         d="m 611.4233,714.49249 -0.34549,-1.6332 -0.0838,0 c -0.57233,0.71889 -1.14465,1.20745 -1.71696,1.46569 -0.56534,0.25127 -1.27376,0.3769 -2.12525,0.3769 -1.13766,0 -2.03104,-0.29314 -2.68013,-0.87942 -0.64211,-0.58627 -0.96317,-1.42032 -0.96317,-2.50215 0,-2.31718 1.85306,-3.53161 5.55917,-3.64329 l 1.94728,-0.0628 0,-0.7119 c -10e-6,-0.90035 -0.19544,-1.5634 -0.58628,-1.98916 -0.38388,-0.43272 -1.00157,-0.64908 -1.85306,-0.64909 -0.95619,10e-6 -2.03801,0.29315 -3.24546,0.87941 l -0.53393,-1.32959 c 0.56534,-0.30709 1.18302,-0.54788 1.85305,-0.72238 0.67701,-0.17447 1.35402,-0.26172 2.03104,-0.26173 1.36797,1e-5 2.37999,0.30362 3.03607,0.91083 0.66305,0.60722 0.99457,1.58086 0.99458,2.92091 l 0,7.83099 -1.28771,0 m -3.92597,-1.2249 c 1.08182,0 1.92982,-0.29662 2.54403,-0.88988 0.62116,-0.59326 0.93175,-1.42382 0.93176,-2.49168 l 0,-1.03646 -1.73789,0.0733 c -1.38195,0.0489 -2.38002,0.26522 -2.99421,0.64909 -0.60722,0.3769 -0.91082,0.96666 -0.91082,1.7693 0,0.62816 0.18844,1.10625 0.56534,1.43429 0.38387,0.32804 0.9178,0.49205 1.60179,0.49205"
         style="font-size:21.44099808px;font-variant:normal;font-stretch:normal;fill:#1daeff;font-family:Open Sans;-inkscape-font-specification:Open Sans"
         id="path3105" />
      <path
         d="m 620.00808,713.26759 c 0.30709,0 0.60372,-0.0209 0.88988,-0.0628 0.28615,-0.0489 0.51299,-0.0977 0.6805,-0.14657 l 0,1.32959 c -0.18845,0.0907 -0.46763,0.16402 -0.83754,0.21985 -0.36294,0.0628 -0.69097,0.0942 -0.9841,0.0942 -2.21949,0 -3.32922,-1.16907 -3.32922,-3.5072 l 0,-6.82594 -1.64367,0 0,-0.83754 1.64367,-0.72238 0.73284,-2.4498 1.00505,0 0,2.65919 3.32922,0 0,1.35053 -3.32922,0 0,6.75266 c 0,0.69097 0.16402,1.22141 0.49206,1.59132 0.32803,0.36992 0.7782,0.55487 1.35053,0.55487"
         style="font-size:21.44099808px;font-variant:normal;font-stretch:normal;fill:#1daeff;font-family:Open Sans;-inkscape-font-specification:Open Sans"
         id="path3107" />
      <path
         d="m 633.78559,708.74488 c -10e-6,1.87051 -0.47112,3.33271 -1.41334,4.38661 -0.94225,1.04693 -2.24392,1.57039 -3.90503,1.57039 -1.02599,0 -1.93681,-0.2408 -2.73247,-0.72238 -0.79567,-0.48158 -1.40986,-1.17255 -1.84259,-2.07291 -0.43273,-0.90035 -0.64909,-1.95425 -0.64909,-3.16171 0,-1.87049 0.46762,-3.32572 1.40288,-4.36567 0.93525,-1.04691 2.23343,-1.57037 3.89455,-1.57039 1.60528,2e-5 2.87904,0.53395 3.82128,1.6018 0.9492,1.06787 1.4238,2.51262 1.42381,4.33426 m -8.74181,0 c 0,1.4657 0.29313,2.58242 0.87942,3.35016 0.58627,0.76774 1.44823,1.15161 2.5859,1.15161 1.13765,0 1.99961,-0.38038 2.5859,-1.14114 0.59325,-0.76774 0.88987,-1.88795 0.88988,-3.36063 -10e-6,-1.45871 -0.29663,-2.56495 -0.88988,-3.31875 -0.58629,-0.76075 -1.45523,-1.14113 -2.60684,-1.14114 -1.13766,10e-6 -1.99614,0.37341 -2.57543,1.1202 -0.57931,0.74682 -0.86895,1.86005 -0.86895,3.33969"
         style="font-size:21.44099808px;font-variant:normal;font-stretch:normal;fill:#1daeff;font-family:Open Sans;-inkscape-font-specification:Open Sans"
         id="path3109" />
      <path
         d="m 642.05628,702.80882 c 0.5095,2e-5 0.96666,0.0419 1.37147,0.12563 l -0.24079,1.61227 c -0.47461,-0.10469 -0.89338,-0.15703 -1.25631,-0.15704 -0.92827,10e-6 -1.72394,0.3769 -2.38698,1.13068 -0.65608,0.75379 -0.98411,1.69253 -0.98411,2.81622 l 0,6.15591 -1.73789,0 0,-11.47428 1.43428,0 0.19892,2.12525 0.0838,0 c 0.42575,-0.74679 0.93874,-1.3226 1.53898,-1.72742 0.60023,-0.4048 1.25979,-0.6072 1.97868,-0.60722"
         style="font-size:21.44099808px;font-variant:normal;font-stretch:normal;fill:#1daeff;font-family:Open Sans;-inkscape-font-specification:Open Sans"
         id="path3111" />
    </g>
    <g
       transform="matrix(0.67003121,0,0,0.67003121,208.90381,201.59197)"
       style="font-size:40px;font-style:normal;font-weight:normal;line-height:125%;letter-spacing:0px;word-spacing:0px;fill:#000000;fill-opacity:1;stroke:none;font-family:Sans"
       id="flowRoot7154" />
    <g
       style="font-size:40px;font-style:normal;font-weight:normal;line-height:125%;letter-spacing:0px;word-spacing:0px;fill:#000000;fill-opacity:1;stroke:none;font-family:Sans"
       id="text11422-0-3">
      <path
         d="m 271.52211,583.3697 0,1.062 1.98,0 0,6.138 -2.088,0 0,1.026 5.328,0 0,-1.026 -1.926,0 0,-7.2 -3.294,0 m 2.664,-3.564 c -0.522,0 -0.936,0.414 -0.936,0.918 0,0.504 0.414,0.918 0.936,0.918 0.52199,0 0.936,-0.414 0.936,-0.918 0,-0.504 -0.41401,-0.918 -0.936,-0.918"
         style="font-size:18px;font-variant:normal;font-weight:500;font-stretch:normal;fill:#000000;font-family:Inconsolata;-inkscape-font-specification:Inconsolata Medium"
         id="path3115" />
      <path
         d="m 285.29211,584.5757 c -0.396,-0.846 -1.27801,-1.404 -2.412,-1.404 -1.566,0 -3.474,1.11601 -3.474,4.248 0,3.042 1.692,4.374 3.276,4.374 1.04399,0 2.016,-0.594 2.538,-1.512 l 0,0.72 c 0,0.198 0.018,0.396 0.072,0.594 l 1.296,0 c -0.072,-0.234 -0.072,-0.504 -0.072,-0.756 l -0.018,-10.692 c 0,-0.108 0,-0.144 0.072,-0.252 0.036,-0.054 0.108,-0.144 0.09,-0.27 l -1.368,0 0,4.95 m -2.358,-0.342 c 0.71999,0 1.782,0.378 2.106,1.602 0.108,0.378 0.144,0.828 0.144,1.746 0,0.63 -0.036,1.08 -0.18,1.512 -0.306,0.972 -1.17001,1.548 -2.016,1.548 -0.936,0 -2.322,-0.72 -2.322,-3.42 0,-2.35799 1.314,-2.988 2.268,-2.988"
         style="font-size:18px;font-variant:normal;font-weight:500;font-stretch:normal;fill:#000000;font-family:Inconsolata;-inkscape-font-specification:Inconsolata Medium"
         id="path3117" />
      <path
         d="m 292.96011,585.0257 c 0,-0.558 -0.46801,-1.026 -1.062,-1.026 -0.594,0 -1.062,0.468 -1.062,1.026 0,0.576 0.468,1.026 1.062,1.026 0.59399,0 1.062,-0.45 1.062,-1.026 m 0,5.742 c 0,-0.558 -0.46801,-1.026 -1.062,-1.026 -0.594,0 -1.062,0.468 -1.062,1.026 0,0.576 0.468,1.044 1.062,1.044 0.59399,0 1.062,-0.468 1.062,-1.044"
         style="font-size:18px;font-variant:normal;font-weight:500;font-stretch:normal;fill:#000000;font-family:Inconsolata;-inkscape-font-specification:Inconsolata Medium"
         id="path3119" />
      <path
         d="m 310.99611,580.3817 -0.864,0 -2.934,1.53 0.288,0.702 2.25,-0.666 0,9.666 1.26,0 0,-11.232"
         style="color:#000000;fill:#f23931;fill-opacity:1;fill-rule:nonzero;stroke:none;stroke-width:1;marker:none;visibility:visible;display:inline;overflow:visible;enable-background:accumulate"
         id="path3121" />
      <path
         d="m 272.99811,603.6737 -0.162,2.214 -1.962,0 -0.018,1.062 1.926,0 c -0.108,1.404 -0.162,2.808 -0.162,4.194 0,0.738 0,1.566 0.486,2.25 0.39599,0.54 1.026,0.864 1.872,0.864 0.97199,0 1.926,-0.414 2.628,-0.918 l -0.396,-1.026 c -0.702,0.522 -1.35001,0.756 -1.854,0.756 -0.612,0 -1.242,-0.342 -1.386,-1.332 0,-0.072 -0.054,-0.378 -0.054,-1.584 0,-1.062 0.054,-2.142 0.162,-3.204 l 2.7,0 0,-1.08 -2.682,0 c 0,0 0.126,-1.476 0.216,-1.944 0.018,-0.18 0.162,-0.288 0.09,-0.486 l -1.404,0.234"
         style="font-size:18px;font-variant:normal;font-weight:500;font-stretch:normal;fill:#000000;font-family:Inconsolata;-inkscape-font-specification:Inconsolata Medium"
         id="path3123" />
      <path
         d="m 280.23411,606.8417 0.63,0.828 c 0.68399,-0.702 1.602,-0.918 2.376,-0.918 0.97199,0 1.458,0.414 1.692,0.792 0.26999,0.45 0.252,0.99 0.252,1.422 l 0,0.288 -0.252,0 c -1.224,0 -2.52001,0 -3.564,0.378 -1.296,0.468 -1.872,1.44 -1.872,2.34 0,1.206 1.044,2.34 2.754,2.34 1.00799,0 2.052,-0.378 2.952,-1.116 l 0,0.9 1.224,0 0,-5.094 c 0,-0.666 -0.018,-1.296 -0.396,-1.944 -0.54,-0.882 -1.58401,-1.35 -2.862,-1.35 -1.098,0 -2.16001,0.342 -2.934,1.134 m 5.004,3.402 0,0.558 c 0,0.414 -1e-5,0.954 -0.558,1.548 -0.306,0.306 -1.08001,0.972 -2.16,0.972 -1.098,0 -1.728,-0.702 -1.728,-1.422 0,-0.612 0.414,-1.278 1.44,-1.53 0.75599,-0.18 1.854,-0.126 2.718,-0.126 l 0.288,0"
         style="font-size:18px;font-variant:normal;font-weight:500;font-stretch:normal;fill:#000000;font-family:Inconsolata;-inkscape-font-specification:Inconsolata Medium"
         id="path3125" />
      <path
         d="m 289.86411,608.4437 c 0,-0.99 0.828,-1.8 1.818,-1.8 1.00799,0 1.818,0.81 1.818,1.8 0,0.99 -0.81001,1.8 -1.818,1.8 -1.008,0 -1.818,-0.81 -1.818,-1.8 m 1.89,-2.826 c -1.638,0 -3.06,1.296 -3.06,2.898 0,0.9 0.45,1.746 1.206,2.232 -0.594,0.504 -0.936,1.062 -0.936,1.584 0,0.342 0.144,0.828 0.666,1.098 -0.882,0.558 -1.332,1.17 -1.332,1.818 0,0.9 0.828,1.962 3.708,1.962 2.78999,0 3.798,-1.422 3.798,-2.52 0,-0.72 -0.41401,-1.44 -1.278,-1.782 -0.864,-0.36 -1.85401,-0.234 -2.79,-0.234 -0.612,0 -1.008,-0.054 -1.17,-0.108 -0.324,-0.09 -0.504,-0.288 -0.504,-0.54 0,-0.432 0.504,-0.846 0.594,-0.918 0.32399,0.126 0.684,0.18 1.044,0.18 1.61999,0 2.952,-1.296 2.952,-2.808 0,-0.504 -0.14401,-0.99 -0.414,-1.404 0.43199,-0.252 0.936,-0.396 1.44,-0.396 0.162,0 0.306,0.018 0.468,0.054 l -0.144,-1.062 c -0.828,-0.072 -1.65601,0.198 -2.286,0.72 -0.522,-0.504 -1.20601,-0.774 -1.962,-0.774 m -1.242,8.046 c 0.30599,0.036 0.738,0.072 1.368,0.108 0.61199,0.018 1.278,-0.036 1.746,0.036 0.75599,0.126 0.99,0.594 0.99,0.954 0,0.36 -0.21601,0.792 -0.774,1.098 -0.612,0.324 -1.29601,0.36 -1.854,0.36 -0.378,0 -1.08001,-0.018 -1.692,-0.27 -0.666,-0.27 -0.81,-0.72 -0.81,-1.008 0,-0.594 0.558,-1.026 1.026,-1.278"
         style="font-size:18px;font-variant:normal;font-weight:500;font-stretch:normal;fill:#000000;font-family:Inconsolata;-inkscape-font-specification:Inconsolata Medium"
         id="path3127" />
      <path
         d="m 301.96011,607.5257 c 0,-0.558 -0.46801,-1.026 -1.062,-1.026 -0.594,0 -1.062,0.468 -1.062,1.026 0,0.576 0.468,1.026 1.062,1.026 0.59399,0 1.062,-0.45 1.062,-1.026 m 0,5.742 c 0,-0.558 -0.46801,-1.026 -1.062,-1.026 -0.594,0 -1.062,0.468 -1.062,1.026 0,0.576 0.468,1.044 1.062,1.044 0.59399,0 1.062,-0.468 1.062,-1.044"
         style="font-size:18px;font-variant:normal;font-weight:500;font-stretch:normal;fill:#000000;font-family:Inconsolata;-inkscape-font-specification:Inconsolata Medium"
         id="path3129" />
      <path
         d="m 320.78811,602.0357 c -1.152,0 -2.23201,0.486 -2.808,1.422 -0.432,0.684 -0.45,1.368 -0.45,2.106 l 0,0.81 -1.8,0 0,1.026 1.8,0 0,6.696 1.242,0 0,-6.696 2.682,0 0,-1.026 -2.682,0 0,-0.648 c 0,-0.594 -0.018,-1.224 0.288,-1.764 0.34199,-0.612 0.99,-0.918 1.656,-0.918 0.79199,0 1.458,0.414 1.8,0.936 0.054,0.09 0.054,0.144 0.054,0.216 0,0.126 0.09,0.162 0.144,0.162 l 0.594,-1.206 c -0.594,-0.702 -1.49401,-1.116 -2.52,-1.116"
         style="font-size:18px;font-variant:normal;font-weight:500;font-stretch:normal;fill:#000000;font-family:Inconsolata;-inkscape-font-specification:Inconsolata Medium"
         id="path3131" />
      <path
         d="m 331.89411,610.0277 c 0,-2.84399 -1.80001,-4.32 -3.672,-4.32 -2.088,0 -3.888,1.80001 -3.888,4.356 0,2.502 1.782,4.266 3.852,4.266 1.94399,0 3.708,-1.566 3.708,-4.302 m -3.762,-3.222 c 1.18799,0 2.448,1.02601 2.448,3.276 0,2.07 -1.18801,3.114 -2.376,3.114 -1.314,0 -2.502,-1.224 -2.502,-3.258 0,-2.01599 1.17,-3.132 2.43,-3.132"
         style="font-size:18px;font-variant:normal;font-weight:500;font-stretch:normal;fill:#000000;font-family:Inconsolata;-inkscape-font-specification:Inconsolata Medium"
         id="path3133" />
      <path
         d="m 340.89411,610.0277 c 0,-2.84399 -1.80001,-4.32 -3.672,-4.32 -2.088,0 -3.888,1.80001 -3.888,4.356 0,2.502 1.782,4.266 3.852,4.266 1.94399,0 3.708,-1.566 3.708,-4.302 m -3.762,-3.222 c 1.18799,0 2.448,1.02601 2.448,3.276 0,2.07 -1.18801,3.114 -2.376,3.114 -1.314,0 -2.502,-1.224 -2.502,-3.258 0,-2.01599 1.17,-3.132 2.43,-3.132"
         style="font-size:18px;font-variant:normal;font-weight:500;font-stretch:normal;fill:#000000;font-family:Inconsolata;-inkscape-font-specification:Inconsolata Medium"
         id="path3135" />
      <path
         d="m 270.67611,628.3877 0.018,11.214 1.314,0 0,-4.086 c 0.55799,0.81 1.476,1.314 2.466,1.314 1.69199,0 3.456,-1.422 3.456,-4.428 0,-2.89799 -1.71001,-4.194 -3.33,-4.194 -1.062,0 -2.05201,0.54 -2.61,1.44 l 0,-1.26 -1.314,0 m 3.438,0.918 c 0.71999,0 2.466,0.37801 2.466,3.366 0,2.592 -1.69201,3.006 -2.466,3.006 -0.774,0 -1.56601,-0.396 -1.89,-1.134 -0.234,-0.558 -0.234,-1.242 -0.234,-2.43 0,-0.684 0.036,-1.188 0.216,-1.62 0.32399,-0.738 1.08,-1.188 1.908,-1.188"
         style="font-size:18px;font-variant:normal;font-weight:500;font-stretch:normal;fill:#000000;font-family:Inconsolata;-inkscape-font-specification:Inconsolata Medium"
         id="path3137" />
      <path
         d="m 280.39611,628.3877 0,8.226 1.296,0 0,-3.996 c 0,-0.504 0.018,-1.044 0.576,-1.926 0.75599,-1.188 1.728,-1.386 2.322,-1.386 0.68399,0 1.116,0.324 1.35,0.612 0.108,0.144 0.162,0.288 0.306,0.414 l 0.612,-1.242 c -0.522,-0.54 -1.27801,-0.9 -2.196,-0.9 -1.206,0 -2.43001,0.612 -2.97,1.782 l 0.054,-1.584 -1.35,0"
         style="font-size:18px;font-variant:normal;font-weight:500;font-stretch:normal;fill:#000000;font-family:Inconsolata;-inkscape-font-specification:Inconsolata Medium"
         id="path3139" />
      <path
         d="m 289.52211,628.3697 0,1.062 1.98,0 0,6.138 -2.088,0 0,1.026 5.328,0 0,-1.026 -1.926,0 0,-7.2 -3.294,0 m 2.664,-3.564 c -0.522,0 -0.936,0.414 -0.936,0.918 0,0.504 0.414,0.918 0.936,0.918 0.52199,0 0.936,-0.414 0.936,-0.918 0,-0.504 -0.41401,-0.918 -0.936,-0.918"
         style="font-size:18px;font-variant:normal;font-weight:500;font-stretch:normal;fill:#000000;font-family:Inconsolata;-inkscape-font-specification:Inconsolata Medium"
         id="path3141" />
      <path
         d="m 304.82211,629.7377 c -0.648,-0.954 -1.74601,-1.53 -3.078,-1.53 -2.412,0 -4.122,1.81801 -4.122,4.284 0,2.484 1.71,4.32 4.05,4.32 1.13399,0 2.25,-0.468 3.024,-1.314 l -0.738,-0.864 c -0.558,0.63 -1.36801,0.99 -2.178,0.99 -1.602,0 -2.826,-1.332 -2.826,-3.258 0,-1.872 1.206,-3.042 2.718,-3.042 1.40399,0 2.07,0.972 2.124,1.08 0.072,0.126 -0.036,0.306 0.108,0.414 l 0.918,-1.08"
         style="font-size:18px;font-variant:normal;font-weight:500;font-stretch:normal;fill:#000000;font-family:Inconsolata;-inkscape-font-specification:Inconsolata Medium"
         id="path3143" />
      <path
         d="m 310.25811,628.1897 c -1.962,0 -3.78,1.40401 -3.78,4.392 0,2.754 1.71,4.212 3.942,4.212 1.18799,0 2.25,-0.432 2.952,-1.278 l -0.72,-0.702 c -0.522,0.612 -1.31401,0.936 -2.124,0.936 -1.098,0 -2.7,-0.612 -2.79,-3.078 l 5.832,0 c 0.054,-0.558 0.036,-1.098 -0.054,-1.566 -0.378,-2.21399 -1.90801,-2.916 -3.258,-2.916 m -2.484,3.492 c 0.26999,-1.94399 1.512,-2.502 2.394,-2.502 1.33199,0 2.286,1.17 2.124,2.502 l -4.518,0"
         style="font-size:18px;font-variant:normal;font-weight:500;font-stretch:normal;fill:#000000;font-family:Inconsolata;-inkscape-font-specification:Inconsolata Medium"
         id="path3145" />
      <path
         d="m 319.96011,630.0257 c 0,-0.558 -0.46801,-1.026 -1.062,-1.026 -0.594,0 -1.062,0.468 -1.062,1.026 0,0.576 0.468,1.026 1.062,1.026 0.59399,0 1.062,-0.45 1.062,-1.026 m 0,5.742 c 0,-0.558 -0.46801,-1.026 -1.062,-1.026 -0.594,0 -1.062,0.468 -1.062,1.026 0,0.576 0.468,1.044 1.062,1.044 0.59399,0 1.062,-0.468 1.062,-1.044"
         style="font-size:18px;font-variant:normal;font-weight:500;font-stretch:normal;fill:#000000;font-family:Inconsolata;-inkscape-font-specification:Inconsolata Medium"
         id="path3147" />
      <path
         d="m 337.99611,625.3817 -0.864,0 -2.934,1.53 0.288,0.702 2.25,-0.666 0,9.666 1.26,0 0,-11.232"
         style="font-size:18px;font-variant:normal;font-weight:500;font-stretch:normal;fill:#000000;font-family:Inconsolata;-inkscape-font-specification:Inconsolata Medium"
         id="path3149" />
      <path
         d="m 346.13211,625.3097 c -1.782,0 -3.618,2.19601 -3.618,5.778 0,3.636 1.854,5.724 3.636,5.724 1.61999,0 3.546,-1.764 3.546,-5.634 0,-3.81599 -1.83601,-5.868 -3.564,-5.868 m 1.746,2.574 -3.942,5.112 c -0.162,-0.63 -0.252,-1.332 -0.252,-2.124 0,-2.87999 1.314,-4.464 2.43,-4.464 0.61199,0 1.278,0.486 1.764,1.476 m 0.414,1.188 c 0.162,0.63 0.234,1.386 0.234,2.268 0,3.132 -1.35001,4.32 -2.34,4.32 -0.666,0 -1.35001,-0.54 -1.836,-1.53 l 3.942,-5.058"
         style="font-size:18px;font-variant:normal;font-weight:500;font-stretch:normal;fill:#000000;font-family:Inconsolata;-inkscape-font-specification:Inconsolata Medium"
         id="path3151" />
    </g>
    <g
       style="font-size:40px;font-style:normal;font-weight:normal;line-height:125%;letter-spacing:0px;word-spacing:0px;fill:#000000;fill-opacity:1;stroke:none;font-family:Sans"
       id="text11422-8-7-5">
      <path
         d="m 368.86998,583.22346 0,1.062 1.98,0 0,6.138 -2.088,0 0,1.026 5.328,0 0,-1.026 -1.926,0 0,-7.2 -3.294,0 m 2.664,-3.564 c -0.522,0 -0.936,0.414 -0.936,0.918 0,0.504 0.414,0.918 0.936,0.918 0.52199,0 0.936,-0.414 0.936,-0.918 0,-0.504 -0.41401,-0.918 -0.936,-0.918"
         style="font-size:18px;font-variant:normal;font-weight:500;font-stretch:normal;fill:#000000;font-family:Inconsolata;-inkscape-font-specification:Inconsolata Medium"
         id="path3154" />
      <path
         d="m 382.63998,584.42946 c -0.396,-0.846 -1.27801,-1.404 -2.412,-1.404 -1.566,0 -3.474,1.11601 -3.474,4.248 0,3.042 1.692,4.374 3.276,4.374 1.04399,0 2.016,-0.594 2.538,-1.512 l 0,0.72 c 0,0.198 0.018,0.396 0.072,0.594 l 1.296,0 c -0.072,-0.234 -0.072,-0.504 -0.072,-0.756 l -0.018,-10.692 c 0,-0.108 0,-0.144 0.072,-0.252 0.036,-0.054 0.108,-0.144 0.09,-0.27 l -1.368,0 0,4.95 m -2.358,-0.342 c 0.71999,0 1.782,0.378 2.106,1.602 0.10799,0.378 0.144,0.828 0.144,1.746 0,0.63 -0.036,1.08 -0.18,1.512 -0.306,0.972 -1.17001,1.548 -2.016,1.548 -0.936,0 -2.322,-0.72 -2.322,-3.42 0,-2.35799 1.314,-2.988 2.268,-2.988"
         style="font-size:18px;font-variant:normal;font-weight:500;font-stretch:normal;fill:#000000;font-family:Inconsolata;-inkscape-font-specification:Inconsolata Medium"
         id="path3156" />
      <path
         d="m 390.30798,584.87946 c 0,-0.558 -0.46801,-1.026 -1.062,-1.026 -0.594,0 -1.062,0.468 -1.062,1.026 0,0.576 0.468,1.026 1.062,1.026 0.59399,0 1.062,-0.45 1.062,-1.026 m 0,5.742 c 0,-0.558 -0.46801,-1.026 -1.062,-1.026 -0.594,0 -1.062,0.468 -1.062,1.026 0,0.576 0.468,1.044 1.062,1.044 0.59399,0 1.062,-0.468 1.062,-1.044"
         style="font-size:18px;font-variant:normal;font-weight:500;font-stretch:normal;fill:#000000;font-family:Inconsolata;-inkscape-font-specification:Inconsolata Medium"
         id="path3158" />
      <path
         d="m 408.59598,580.23546 -4.77,7.182 0,0.936 4.518,0 0,3.096 1.296,0 0,-3.078 1.458,0 0,-1.116 -1.458,0 0,-7.02 -1.044,0 m -0.234,1.998 0,5.022 -3.294,0 3.294,-5.022"
         style="color:#000000;fill:#f23931;fill-opacity:1;fill-rule:nonzero;stroke:none;stroke-width:1;marker:none;visibility:visible;display:inline;overflow:visible;enable-background:accumulate"
         id="path3160" />
      <path
         d="m 370.34598,603.52746 -0.162,2.214 -1.962,0 -0.018,1.062 1.926,0 c -0.108,1.404 -0.162,2.808 -0.162,4.194 0,0.738 0,1.566 0.486,2.25 0.39599,0.54 1.026,0.864 1.872,0.864 0.97199,0 1.926,-0.414 2.628,-0.918 l -0.396,-1.026 c -0.702,0.522 -1.35001,0.756 -1.854,0.756 -0.612,0 -1.24201,-0.342 -1.386,-1.332 0,-0.072 -0.054,-0.378 -0.054,-1.584 0,-1.062 0.054,-2.142 0.162,-3.204 l 2.7,0 0,-1.08 -2.682,0 c 0,0 0.126,-1.476 0.216,-1.944 0.018,-0.18 0.162,-0.288 0.09,-0.486 l -1.404,0.234"
         style="font-size:18px;font-variant:normal;font-weight:500;font-stretch:normal;fill:#000000;font-family:Inconsolata;-inkscape-font-specification:Inconsolata Medium"
         id="path3162" />
      <path
         d="m 377.58198,606.69546 0.63,0.828 c 0.68399,-0.702 1.602,-0.918 2.376,-0.918 0.97199,0 1.458,0.414 1.692,0.792 0.26999,0.45 0.252,0.99 0.252,1.422 l 0,0.288 -0.252,0 c -1.224,0 -2.52001,0 -3.564,0.378 -1.296,0.468 -1.872,1.44 -1.872,2.34 0,1.206 1.044,2.34 2.754,2.34 1.00799,0 2.052,-0.378 2.952,-1.116 l 0,0.9 1.224,0 0,-5.094 c 0,-0.666 -0.018,-1.296 -0.396,-1.944 -0.54,-0.882 -1.58401,-1.35 -2.862,-1.35 -1.098,0 -2.16001,0.342 -2.934,1.134 m 5.004,3.402 0,0.558 c 0,0.414 -1e-5,0.954 -0.558,1.548 -0.306,0.306 -1.08001,0.972 -2.16,0.972 -1.098,0 -1.728,-0.702 -1.728,-1.422 0,-0.612 0.414,-1.278 1.44,-1.53 0.75599,-0.18 1.854,-0.126 2.718,-0.126 l 0.288,0"
         style="font-size:18px;font-variant:normal;font-weight:500;font-stretch:normal;fill:#000000;font-family:Inconsolata;-inkscape-font-specification:Inconsolata Medium"
         id="path3164" />
      <path
         d="m 387.21198,608.29746 c 0,-0.99 0.828,-1.8 1.818,-1.8 1.00799,0 1.818,0.81 1.818,1.8 0,0.99 -0.81001,1.8 -1.818,1.8 -1.008,0 -1.818,-0.81 -1.818,-1.8 m 1.89,-2.826 c -1.638,0 -3.06,1.296 -3.06,2.898 0,0.9 0.45,1.746 1.206,2.232 -0.594,0.504 -0.936,1.062 -0.936,1.584 0,0.342 0.144,0.828 0.666,1.098 -0.882,0.558 -1.332,1.17 -1.332,1.818 0,0.9 0.828,1.962 3.708,1.962 2.78999,0 3.798,-1.422 3.798,-2.52 0,-0.72 -0.41401,-1.44 -1.278,-1.782 -0.864,-0.36 -1.85401,-0.234 -2.79,-0.234 -0.612,0 -1.00801,-0.054 -1.17,-0.108 -0.324,-0.09 -0.504,-0.288 -0.504,-0.54 0,-0.432 0.504,-0.846 0.594,-0.918 0.32399,0.126 0.684,0.18 1.044,0.18 1.61999,0 2.952,-1.296 2.952,-2.808 0,-0.504 -0.14401,-0.99 -0.414,-1.404 0.43199,-0.252 0.936,-0.396 1.44,-0.396 0.16199,0 0.306,0.018 0.468,0.054 l -0.144,-1.062 c -0.828,-0.072 -1.65601,0.198 -2.286,0.72 -0.522,-0.504 -1.20601,-0.774 -1.962,-0.774 m -1.242,8.046 c 0.30599,0.036 0.738,0.072 1.368,0.108 0.61199,0.018 1.278,-0.036 1.746,0.036 0.75599,0.126 0.99,0.594 0.99,0.954 0,0.36 -0.21601,0.792 -0.774,1.098 -0.612,0.324 -1.29601,0.36 -1.854,0.36 -0.378,0 -1.08001,-0.018 -1.692,-0.27 -0.666,-0.27 -0.81,-0.72 -0.81,-1.008 0,-0.594 0.558,-1.026 1.026,-1.278"
         style="font-size:18px;font-variant:normal;font-weight:500;font-stretch:normal;fill:#000000;font-family:Inconsolata;-inkscape-font-specification:Inconsolata Medium"
         id="path3166" />
      <path
         d="m 399.30798,607.37946 c 0,-0.558 -0.46801,-1.026 -1.062,-1.026 -0.594,0 -1.062,0.468 -1.062,1.026 0,0.576 0.468,1.026 1.062,1.026 0.59399,0 1.062,-0.45 1.062,-1.026 m 0,5.742 c 0,-0.558 -0.46801,-1.026 -1.062,-1.026 -0.594,0 -1.062,0.468 -1.062,1.026 0,0.576 0.468,1.044 1.062,1.044 0.59399,0 1.062,-0.468 1.062,-1.044"
         style="font-size:18px;font-variant:normal;font-weight:500;font-stretch:normal;fill:#000000;font-family:Inconsolata;-inkscape-font-specification:Inconsolata Medium"
         id="path3168" />
      <path
         d="m 418.13598,601.88946 c -1.152,0 -2.23201,0.486 -2.808,1.422 -0.432,0.684 -0.45,1.368 -0.45,2.106 l 0,0.81 -1.8,0 0,1.026 1.8,0 0,6.696 1.242,0 0,-6.696 2.682,0 0,-1.026 -2.682,0 0,-0.648 c 0,-0.594 -0.018,-1.224 0.288,-1.764 0.34199,-0.612 0.99,-0.918 1.656,-0.918 0.79199,0 1.458,0.414 1.8,0.936 0.054,0.09 0.054,0.144 0.054,0.216 0,0.126 0.09,0.162 0.144,0.162 l 0.594,-1.206 c -0.594,-0.702 -1.49401,-1.116 -2.52,-1.116"
         style="font-size:18px;font-variant:normal;font-weight:500;font-stretch:normal;fill:#000000;font-family:Inconsolata;-inkscape-font-specification:Inconsolata Medium"
         id="path3170" />
      <path
         d="m 429.24198,609.88146 c 0,-2.84399 -1.80001,-4.32 -3.672,-4.32 -2.088,0 -3.888,1.80001 -3.888,4.356 0,2.502 1.782,4.266 3.852,4.266 1.94399,0 3.708,-1.566 3.708,-4.302 m -3.762,-3.222 c 1.18799,0 2.448,1.02601 2.448,3.276 0,2.07 -1.18801,3.114 -2.376,3.114 -1.314,0 -2.502,-1.224 -2.502,-3.258 0,-2.016 1.17,-3.132 2.43,-3.132"
         style="font-size:18px;font-variant:normal;font-weight:500;font-stretch:normal;fill:#000000;font-family:Inconsolata;-inkscape-font-specification:Inconsolata Medium"
         id="path3172" />
      <path
         d="m 438.24198,609.88146 c 0,-2.84399 -1.80001,-4.32 -3.672,-4.32 -2.088,0 -3.888,1.80001 -3.888,4.356 0,2.502 1.782,4.266 3.852,4.266 1.94399,0 3.708,-1.566 3.708,-4.302 m -3.762,-3.222 c 1.18799,0 2.448,1.02601 2.448,3.276 0,2.07 -1.18801,3.114 -2.376,3.114 -1.314,0 -2.502,-1.224 -2.502,-3.258 0,-2.016 1.17,-3.132 2.43,-3.132"
         style="font-size:18px;font-variant:normal;font-weight:500;font-stretch:normal;fill:#000000;font-family:Inconsolata;-inkscape-font-specification:Inconsolata Medium"
         id="path3174" />
      <path
         d="m 368.02398,628.24146 0.018,11.214 1.314,0 0,-4.086 c 0.55799,0.81 1.476,1.314 2.466,1.314 1.69199,0 3.456,-1.422 3.456,-4.428 0,-2.89799 -1.71001,-4.194 -3.33,-4.194 -1.062,0 -2.05201,0.54 -2.61,1.44 l 0,-1.26 -1.314,0 m 3.438,0.918 c 0.71999,0 2.466,0.37801 2.466,3.366 0,2.592 -1.69201,3.006 -2.466,3.006 -0.774,0 -1.56601,-0.396 -1.89,-1.134 -0.234,-0.558 -0.234,-1.242 -0.234,-2.43 0,-0.684 0.036,-1.188 0.216,-1.62 0.32399,-0.738 1.08,-1.188 1.908,-1.188"
         style="font-size:18px;font-variant:normal;font-weight:500;font-stretch:normal;fill:#000000;font-family:Inconsolata;-inkscape-font-specification:Inconsolata Medium"
         id="path3176" />
      <path
         d="m 377.74398,628.24146 0,8.226 1.296,0 0,-3.996 c 0,-0.504 0.018,-1.044 0.576,-1.926 0.75599,-1.188 1.728,-1.386 2.322,-1.386 0.68399,0 1.116,0.324 1.35,0.612 0.10799,0.144 0.162,0.288 0.306,0.414 l 0.612,-1.242 c -0.522,-0.54 -1.27801,-0.9 -2.196,-0.9 -1.206,0 -2.43001,0.612 -2.97,1.782 l 0.054,-1.584 -1.35,0"
         style="font-size:18px;font-variant:normal;font-weight:500;font-stretch:normal;fill:#000000;font-family:Inconsolata;-inkscape-font-specification:Inconsolata Medium"
         id="path3178" />
      <path
         d="m 386.86998,628.22346 0,1.062 1.98,0 0,6.138 -2.088,0 0,1.026 5.328,0 0,-1.026 -1.926,0 0,-7.2 -3.294,0 m 2.664,-3.564 c -0.522,0 -0.936,0.414 -0.936,0.918 0,0.504 0.414,0.918 0.936,0.918 0.52199,0 0.936,-0.414 0.936,-0.918 0,-0.504 -0.41401,-0.918 -0.936,-0.918"
         style="font-size:18px;font-variant:normal;font-weight:500;font-stretch:normal;fill:#000000;font-family:Inconsolata;-inkscape-font-specification:Inconsolata Medium"
         id="path3180" />
      <path
         d="m 402.16998,629.59146 c -0.648,-0.954 -1.74601,-1.53 -3.078,-1.53 -2.412,0 -4.122,1.81801 -4.122,4.284 0,2.484 1.71,4.32 4.05,4.32 1.13399,0 2.25,-0.468 3.024,-1.314 l -0.738,-0.864 c -0.558,0.63 -1.36801,0.99 -2.178,0.99 -1.602,0 -2.826,-1.332 -2.826,-3.258 0,-1.872 1.206,-3.042 2.718,-3.042 1.40399,0 2.07,0.972 2.124,1.08 0.072,0.126 -0.036,0.306 0.108,0.414 l 0.918,-1.08"
         style="font-size:18px;font-variant:normal;font-weight:500;font-stretch:normal;fill:#000000;font-family:Inconsolata;-inkscape-font-specification:Inconsolata Medium"
         id="path3182" />
      <path
         d="m 407.60598,628.04346 c -1.962,0 -3.78,1.40401 -3.78,4.392 0,2.754 1.71,4.212 3.942,4.212 1.18799,0 2.25,-0.432 2.952,-1.278 l -0.72,-0.702 c -0.522,0.612 -1.31401,0.936 -2.124,0.936 -1.098,0 -2.7,-0.612 -2.79,-3.078 l 5.832,0 c 0.054,-0.558 0.036,-1.098 -0.054,-1.566 -0.378,-2.21399 -1.90801,-2.916 -3.258,-2.916 m -2.484,3.492 c 0.26999,-1.944 1.512,-2.502 2.394,-2.502 1.33199,0 2.28599,1.17 2.124,2.502 l -4.518,0"
         style="font-size:18px;font-variant:normal;font-weight:500;font-stretch:normal;fill:#000000;font-family:Inconsolata;-inkscape-font-specification:Inconsolata Medium"
         id="path3184" />
      <path
         d="m 417.30798,629.87946 c 0,-0.558 -0.46801,-1.026 -1.062,-1.026 -0.594,0 -1.062,0.468 -1.062,1.026 0,0.576 0.468,1.026 1.062,1.026 0.59399,0 1.062,-0.45 1.062,-1.026 m 0,5.742 c 0,-0.558 -0.46801,-1.026 -1.062,-1.026 -0.594,0 -1.062,0.468 -1.062,1.026 0,0.576 0.468,1.044 1.062,1.044 0.59399,0 1.062,-0.468 1.062,-1.044"
         style="font-size:18px;font-variant:normal;font-weight:500;font-stretch:normal;fill:#000000;font-family:Inconsolata;-inkscape-font-specification:Inconsolata Medium"
         id="path3186" />
      <path
         d="m 431.36598,625.23546 0,1.206 4.806,0 c -0.576,1.332 -1.11601,2.664 -1.638,4.014 -0.756,1.98 -1.47601,3.978 -2.142,5.994 l 1.422,0 c 0.53999,-1.764 1.134,-3.51 1.782,-5.238 0.64799,-1.782 1.368,-3.528 2.124,-5.274 l 0,-0.702 -6.354,0"
         style="font-size:18px;font-variant:normal;font-weight:500;font-stretch:normal;fill:#000000;font-family:Inconsolata;-inkscape-font-specification:Inconsolata Medium"
         id="path3188" />
      <path
         d="m 444.59598,625.23546 -4.77,7.182 0,0.936 4.518,0 0,3.096 1.296,0 0,-3.078 1.458,0 0,-1.116 -1.458,0 0,-7.02 -1.044,0 m -0.234,1.998 0,5.022 -3.294,0 3.294,-5.022"
         style="font-size:18px;font-variant:normal;font-weight:500;font-stretch:normal;fill:#000000;font-family:Inconsolata;-inkscape-font-specification:Inconsolata Medium"
         id="path3190" />
    </g>
  </g>
</svg>
